<svg width="50" height="44" viewBox="0 0 50 44" fill="none" xmlns="http://www.w3.org/2000/svg">
<path fill-rule="evenodd" clip-rule="evenodd" d="M14.0944 0.194485C11.9588 0.896743 10.6238 3.92433 11.5412 5.98409L11.8432 6.66179L10.7157 8.86428C9.03967 12.1392 8.06252 14.4303 5.33354 21.4863C4.81765 22.8197 1.90527 31.5704 1.38599 33.3459C1.18183 34.0448 0.948875 34.7691 0.869247 34.9554C0.0369557 36.8953 -0.271395 40.0669 0.271182 41.1055C1.06408 42.6231 1.87308 43.3135 4.98792 43.2995C8.65974 43.283 10.6238 42.3215 15.1525 38.9157C16.9848 37.5379 20.8857 34.9449 24.3445 32.805C30.2375 29.1599 31.4344 28.4492 31.5556 28.5237C31.7835 28.6648 35.4299 36.1304 35.6899 36.9885C36.4108 39.3693 35.922 40.011 33.4701 39.9039C31.0113 39.7963 29.8525 39.4676 29.8482 38.8763C29.8245 35.5264 25.3361 33.5577 22.7341 35.7564C18.4316 39.3914 23.793 45.9637 28.2196 42.4816L28.7067 42.0983L29.9986 42.3961C30.7093 42.5596 31.6106 42.7633 32.0012 42.8484C34.4387 43.3792 37.1385 42.471 37.9555 40.845C39.305 38.1597 38.8586 36.3481 34.8136 28.0938C33.6035 25.6245 32.4933 23.3373 32.3468 23.0111C32.2002 22.685 31.7627 21.732 31.3743 20.8933C30.9855 20.0547 30.5136 19.0254 30.3251 18.6061C30.1367 18.1868 29.8004 17.4434 29.5776 16.9542C29.3552 16.465 28.9909 15.6645 28.7686 15.1753C28.5458 14.6861 28.1942 13.9046 27.9871 13.4387C27.78 12.9728 27.4191 12.1723 27.1849 11.6598C26.9511 11.1473 26.6148 10.3933 26.4373 9.98375C26.0536 9.09809 26.007 9.12901 25.5046 10.6026C24.987 12.1223 25.0078 12.7907 25.6152 14.1164C25.8947 14.7268 26.1234 15.2888 26.1234 15.3655C26.1234 15.4417 26.2323 15.7259 26.3649 15.9966C27.0604 17.413 30.0117 25.0899 29.9189 25.2403C29.6729 25.6384 11.3608 37.684 10.113 38.2685C5.94135 40.2228 3.5169 40.2575 3.50547 38.6404C3.50293 38.2579 4.07177 35.8856 5.28568 32.4988C5.66985 31.4272 6.12475 30.1311 6.29671 29.6186C6.4691 29.1061 6.92612 27.81 7.31283 26.7384C7.69954 25.6668 8.23364 24.142 8.49964 23.35C8.76563 22.5579 9.29932 21.0331 9.6856 19.9615C10.0719 18.8899 10.6043 17.3651 10.8686 16.573C11.4396 14.8614 12.8305 11.3607 13.5836 9.73978L14.1211 8.5822L14.9335 8.69359C18.9467 9.24591 21.483 4.15051 18.6206 1.28768C17.4994 0.166527 15.5853 -0.295572 14.0944 0.194485ZM16.9322 3.13143C17.452 3.6973 17.4659 4.99382 16.9585 5.53893C15.5256 7.07687 13.0101 5.53724 13.8636 3.64521C14.4455 2.35463 15.9826 2.0971 16.9322 3.13143ZM26.6351 37.7086C27.2908 38.2999 27.4551 39.1715 27.0659 39.9924C26.3822 41.4329 24.2594 41.2376 23.7477 39.6874C23.1573 37.8987 25.2526 36.4625 26.6351 37.7086Z" fill="#0428C2"/>
<path fill-rule="evenodd" clip-rule="evenodd" d="M24.4804 1.82815C23.3588 2.39529 21.9353 3.79388 21.388 4.86633C20.4477 5.60287 15.0724 21.7603 14.7009 22.9603C14.5793 23.3512 14.5383 23.3703 13.1265 23.6892C10.8495 24.2039 9.43057 26.7037 10.1028 29.0163C11.1155 32.4988 15.922 33.154 17.737 30.0574C18.7882 28.2637 18.5938 26.71 17.055 24.6003C16.5574 23.918 22.3635 9.48097 23.8362 7.50888C25.8032 4.8752 27.7651 3.93744 29.766 6.44999C31.8126 9.02014 40.5328 24.674 43.416 32.3802L43.9107 33.7017L42.9954 34.5954C40.1402 37.3824 41.8997 41.978 45.8243 41.9848C50.4636 41.9929 51.6517 35.1486 47.2627 33.7C46.677 33.5065 46.641 33.4433 46.0192 31.5208C45.6672 30.4314 44.8506 28.4716 44.2047 27.1654C43.5587 25.8587 42.0136 22.5295 40.7705 19.7667C36.7644 10.8609 35.1384 7.86977 32.7241 4.96544C29.9507 1.62907 27.054 0.526552 24.4804 1.82815ZM15.0965 26.1378C15.3587 26.2738 15.7052 26.6622 15.8661 27.0015C16.8987 29.1777 13.5933 30.9147 12.4878 28.777C11.5801 27.0222 13.3481 25.2339 15.0965 26.1378ZM46.9341 36.1749C47.4542 36.4997 47.8578 37.4845 47.7227 38.0995C47.2276 40.3545 43.9128 40.0513 43.9128 37.7509C43.9128 36.202 45.5838 35.3303 46.9341 36.1749Z" fill="black"/>
</svg>
